<svg xmlns="http://www.w3.org/2000/svg" version="1.1" xmlns:xlink="http://www.w3.org/1999/xlink" xmlns:svgjs="http://svgjs.dev/svgjs" width="1500" height="1500" viewBox="0 0 1500 1500"><rect width="1500" height="1500" fill="#000000"></rect><g transform="matrix(0.6666666666666666,0,0,0.6666666666666666,249.39393939393938,435.9903225806451)"><svg viewBox="0 0 396 248" data-background-color="#111111" preserveAspectRatio="xMidYMid meet" height="939" width="1500" xmlns="http://www.w3.org/2000/svg" xmlns:xlink="http://www.w3.org/1999/xlink"><g id="tight-bounds" transform="matrix(1,0,0,1,0.2400000000000091,0.4000000000000057)"><svg viewBox="0 0 395.52 247.2" height="247.2" width="395.52"><g><svg></svg></g><g><svg viewBox="0 0 395.52 247.2" height="247.2" width="395.52"><g transform="matrix(1,0,0,1,75.54432,73.51675687522783)"><svg viewBox="0 0 244.43135999999998 100.16648624954432" height="100.16648624954432" width="244.43135999999998"><g><svg viewBox="0 0 407.0127723690588 166.7913612512496" height="100.16648624954432" width="244.43135999999998"><g transform="matrix(1,0,0,1,162.5814123690588,0)"><svg viewBox="0 0 244.43135999999998 166.7913612512496" height="166.7913612512496" width="244.43135999999998"><g id="textblocktransform"><svg viewBox="0 0 244.43135999999998 166.7913612512496" height="166.7913612512496" width="244.43135999999998" id="textblock"><g><svg viewBox="0 0 244.43135999999998 127.19424252299606" height="127.19424252299606" width="244.43135999999998"><g transform="matrix(1,0,0,1,0,0)"><svg width="244.43135999999998" viewBox="1 -39.2 114.14 59.400000000000006" height="127.19424252299606" data-palette-color="#ffffff"><path d="M17.35-35.8L17.35-35.8Q17.25-35.95 17.07-36.27 16.9-36.6 17-36.7L17-36.7Q17.1-36.8 17.32-36.65 17.55-36.5 17.6-36.45L17.6-36.45Q18.5-35.8 19.28-34.65 20.05-33.5 20.68-32.13 21.3-30.75 21.8-29.25 22.3-27.75 22.6-26.4L22.6-26.4Q23.35-23.1 23.88-19.9 24.4-16.7 24.4-13.3L24.4-13.3Q24.4-13.2 24.43-12.7 24.45-12.2 24.25-12.1L24.25-12.1Q24.1-12.2 23.93-12.6 23.75-13 23.7-13.15L23.7-13.15Q23.1-15 22.63-17.38 22.15-19.75 21.75-21.7L21.75-21.7Q21.45-23.2 21.2-24.58 20.95-25.95 20.63-27.25 20.3-28.55 19.88-29.88 19.45-31.2 18.85-32.65L18.85-32.65Q18.75-32.85 18.53-33.35 18.3-33.85 18.05-34.35 17.8-34.85 17.6-35.27 17.4-35.7 17.35-35.8ZM29.35 1.25L29.35 1.25Q28.8 0.95 28.6 0.88 28.4 0.8 27.85 0.45L27.85 0.45Q26.65-0.25 25.65-1.38 24.65-2.5 23.85-3.85 23.05-5.2 22.43-6.73 21.8-8.25 21.35-9.75L21.35-9.75Q20.35-9.1 18.98-8.97 17.6-8.85 16.45-8.85L16.45-8.85Q15-8.85 13.58-8.95 12.15-9.05 10.7-9.05L10.7-9.05Q9.3-6.45 8.08-4.03 6.85-1.6 6.15 0.5L6.15 0.5Q6.15 0.55 6.1 0.73 6.05 0.9 5.95 0.9L5.95 0.9Q5.8 0.9 5.8 0.55 5.8 0.2 5.8 0.1L5.8 0.1Q5.8-1.9 6.78-4.38 7.75-6.85 8.95-9.25L8.95-9.25 8.2-9.3Q7.9-8.6 7.38-7.35 6.85-6.1 6.38-4.75 5.9-3.4 5.53-2.15 5.15-0.9 5.15-0.15L5.15-0.15Q5.15 0 5 0L5 0Q4.8 0 4.7-0.33 4.6-0.65 4.53-1.05 4.45-1.45 4.42-1.88 4.4-2.3 4.4-2.45L4.4-2.45Q4.4-4.2 4.85-6.13 5.3-8.05 6.05-9.65L6.05-9.65 5.4-9.75Q4.95-8.65 4.55-7.58 4.15-6.5 3.85-5.35L3.85-5.35Q3.85-5.25 3.8-5.1 3.75-4.95 3.65-5L3.65-5Q3.55-5.2 3.53-5.48 3.5-5.75 3.5-5.95L3.5-5.95Q3.5-8.05 4.25-10L4.25-10Q4.5-10.5 4.75-10.5L4.75-10.5Q5.8-10.8 6.88-10.85 7.95-10.9 9.1-10.9L9.1-10.9Q11.6-10.9 14.05-10.53 16.5-10.15 18.95-10.15L18.95-10.15Q20.15-10.15 21.15-10.35L21.15-10.35 21.05-11.15Q20.5-11 19.88-10.95 19.25-10.9 18.7-10.9L18.7-10.9Q16.75-10.9 14.68-11.3 12.6-11.7 10.7-12.25L10.7-12.25Q10.6-12.35 10.3-12.43 10-12.5 10-12.65L10-12.65Q10-12.75 10.3-12.83 10.6-12.9 10.7-12.9L10.7-12.9Q11.4-12.95 12.08-12.98 12.75-13 13.45-13L13.45-13Q14.6-13 15.75-12.98 16.9-12.95 18.1-12.95L18.1-12.95Q18.7-12.95 19.35-12.95 20-12.95 20.6-13L20.6-13 20.5-13.55 19.85-13.55Q17.45-13.55 15.08-14 12.7-14.45 10.3-14.45L10.3-14.45Q8.25-14.45 6.68-13.95 5.1-13.45 3.98-12.8 2.85-12.15 2.15-11.5 1.45-10.85 1.15-10.55L1.15-10.55Q1.05-10.5 1.05-10.5L1.05-10.5Q1-10.5 1-10.6L1-10.6Q1-10.65 1.05-10.7L1.05-10.7Q1.95-12.45 3.25-13.63 4.55-14.8 6.45-15.4L6.45-15.4Q8.35-19.45 10.38-23.45 12.4-27.45 14.65-31.35L14.65-31.35Q14.7-31.45 14.85-31.68 15-31.9 15.15-31.9L15.15-31.9Q15.2-31.85 15.2-31.8L15.2-31.8 15.2-31.7Q15.2-31.3 15.15-31.1L15.15-31.1Q14.2-27.05 12.35-23.3 10.5-19.55 8.55-15.9L8.55-15.9 9.5-15.95Q9.65-16.25 10.28-17.25 10.9-18.25 11.63-19.33 12.35-20.4 12.95-21.28 13.55-22.15 13.7-22.15L13.7-22.15 13.75-22Q13.75-21.75 13.45-20.9 13.15-20.05 12.75-19.05 12.35-18.05 11.98-17.18 11.6-16.3 11.45-15.95L11.45-15.95Q11.75-15.95 12.05-15.93 12.35-15.9 12.65-15.9L12.65-15.9Q13.55-17.7 14.58-19.68 15.6-21.65 16.35-23.7 17.1-25.75 17.38-27.85 17.65-29.95 17.05-32L17.05-32Q17.05-31.75 16.93-31 16.8-30.25 16.6-29.43 16.4-28.6 16.2-27.98 16-27.35 15.8-27.35L15.8-27.35Q15.65-27.35 15.68-27.55 15.7-27.75 15.7-27.8L15.7-27.8Q15.7-29.1 15.88-30.38 16.05-31.65 16.05-32.95L16.05-32.95Q16.05-34.7 15.5-36.35L15.5-36.35Q15.5-36.4 15.35-36.77 15.2-37.15 15.45-37.15L15.45-37.15Q15.55-37.15 15.8-36.9L15.8-36.9Q16.3-36.4 16.78-35.55 17.25-34.7 17.65-33.73 18.05-32.75 18.4-31.8 18.75-30.85 18.95-30.2L18.95-30.2Q19.6-28.05 20.03-25.88 20.45-23.7 20.78-21.53 21.1-19.35 21.45-17.15 21.8-14.95 22.25-12.8L22.25-12.8Q22.7-10.7 23.33-8.7 23.95-6.7 24.85-4.9 25.75-3.1 26.93-1.58 28.1-0.05 29.65 1.1L29.65 1.1Q29.9 1.35 29.83 1.43 29.75 1.5 29.35 1.25ZM29.1-3.6L29.25-3Q29.3-2.7 29.2-2.73 29.1-2.75 28.98-2.9 28.85-3.05 28.73-3.25 28.6-3.45 28.6-3.5L28.6-3.5Q27.4-5.7 26.7-7.98 26-10.25 25.6-12.58 25.2-14.9 24.93-17.28 24.65-19.65 24.28-22.13 23.9-24.6 23.3-27.15 22.7-29.7 21.6-32.35L21.6-32.35Q21.55-32.45 21.45-32.7 21.35-32.95 21.45-33L21.45-33Q21.55-33 21.7-32.85L21.7-32.85 21.9-32.65Q23-31.35 23.85-29.2 24.7-27.05 25.35-24.6 26-22.15 26.43-19.75 26.85-17.35 27.1-15.55L27.1-15.55Q27.5-12.7 27.95-9.55 28.4-6.4 29.1-3.6L29.1-3.6ZM14.4-15.7L14.4-15.7Q15.85-15.55 17.28-15.35 18.7-15.15 20.15-15.05L20.15-15.05Q19.6-17.7 19.2-20.3 18.8-22.9 18.45-25.6L18.45-25.6Q17.8-23 16.68-20.55 15.55-18.1 14.4-15.7ZM30.85 0.7L30.85 0.7Q29.85 0.25 29.1-0.18 28.35-0.6 27.8-1.35L27.8-1.35Q26.95-2.5 26.48-3.65 26-4.8 25.7-5.8L25.7-5.8Q25.6-6.2 25.53-6.7 25.45-7.2 25.55-7.2L25.55-7.2Q25.75-7.2 26.05-6.55 26.35-5.9 26.6-5.45L26.6-5.45Q27.35-3.9 28.5-2.33 29.65-0.75 31 0.25L31 0.25Q31.4 0.6 31.25 0.7 31.1 0.8 30.85 0.7ZM1.3-8.9L1.3-8.9Q1.3-8.9 1.2-8.9L1.2-8.9 1.15-8.9Q1.15-9.05 1.2-9.2 1.25-9.35 1.3-9.5L1.3-9.5Q1.7-10.35 2.08-10.78 2.45-11.2 3.3-11.7L3.3-11.7Q3.8-12 4.7-12.3 5.6-12.6 6.15-12.6L6.15-12.6Q6.25-12.6 6.43-12.58 6.6-12.55 6.6-12.4L6.6-12.4Q6.6-12.25 6.08-12 5.55-11.75 5.4-11.65L5.4-11.65Q3.5-10.5 2.6-9.9 1.7-9.3 1.3-8.9ZM43.2-9.4L43.2-9.4Q42.55-8.2 41.75-6.83 40.95-5.45 40.2-4.85L40.2-4.85Q39.45-4.25 39.15-4.45 38.85-4.65 38.45-5.35L38.45-5.35Q38.05-5.95 38.05-5.95L38.05-5.95Q37.9-5.9 37.9-5.6 37.9-5.3 38-5.05L38-5.05Q38.3-4.05 38.72-3.68 39.15-3.3 39.95-3.55L39.95-3.55Q40.85-3.8 41.72-4.65 42.6-5.5 43.25-6.35L43.25-6.35Q44.75-8.4 45.62-10.7 46.5-13 46.6-15.4L46.6-15.4Q46.7-17.6 46.05-18.25 45.4-18.9 44.42-18.68 43.45-18.45 42.32-17.63 41.2-16.8 40.3-16.05L40.3-16.05Q40.6-16.8 41.12-17.5 41.65-18.2 42.32-18.73 43-19.25 43.82-19.53 44.65-19.8 45.5-19.7L45.5-19.7Q46-19.65 46.4-19.2 46.8-18.75 47.05-18.07 47.3-17.4 47.37-16.5 47.45-15.6 47.35-14.65L47.35-14.65Q47.1-12.75 46.62-10.85 46.15-8.95 45.4-7.35L45.4-7.35Q45.3-7.1 45.07-6.65 44.85-6.2 44.95-6.1L44.95-6.1Q45.05-6 45.42-6.43 45.8-6.85 46-7.05L46-7.05Q46.9-8.25 47.6-9.78 48.3-11.3 48.67-12.9 49.05-14.5 49.1-16.13 49.15-17.75 48.8-19.2L48.8-19.2Q48.5-20.45 47.57-20.9 46.65-21.35 45.55-21.2 44.45-21.05 43.35-20.5 42.25-19.95 41.55-19.3L41.55-19.3Q41.85-20.05 42.37-20.63 42.9-21.2 43.57-21.63 44.25-22.05 45.02-22.23 45.8-22.4 46.6-22.3L46.6-22.3Q48-22.15 48.72-21.2 49.45-20.25 49.72-19.03 50-17.8 49.97-16.48 49.95-15.15 49.85-14.25L49.85-14.25Q49.6-12.15 48.9-10.1 48.2-8.05 47.15-6.3L47.15-6.3Q46.3-4.9 44.92-3.55 43.55-2.2 41.95-1.4 40.35-0.6 38.65-0.58 36.95-0.55 35.45-1.8L35.45-1.8Q34.45-2.65 34.02-4.08 33.6-5.5 33.45-6.8L33.45-6.8Q33.2-9.05 33.52-11.33 33.85-13.6 34.5-15.55L34.5-15.55Q35.5-18.6 36.77-21.7 38.05-24.8 38.97-27.8 39.9-30.8 40.15-33.6 40.4-36.4 39.35-38.9L39.35-38.9Q39.3-39 39.27-39.1 39.25-39.2 39.2-39.2L39.2-39.2Q39.05-39.15 39.07-39.1 39.1-39.05 39.1-39L39.1-39Q39.4-36.6 38.9-34 38.4-31.4 37.47-28.6 36.55-25.8 35.4-22.83 34.25-19.85 33.2-16.7L33.2-16.7Q32.5-14.45 32.07-11.9 31.65-9.35 32.05-6.7L32.05-6.7Q32.6-3.1 35-1.35 37.4 0.4 41 0L41 0Q43.6-0.3 45.6-2.1 47.6-3.9 48.95-6.45L48.95-6.45Q49.95-8.4 50.67-10.58 51.4-12.75 51.55-15L51.55-15Q51.65-16.4 51.52-17.9 51.4-19.4 50.87-20.68 50.35-21.95 49.32-22.78 48.3-23.6 46.6-23.7L46.6-23.7Q45.6-23.75 44.37-23.2 43.15-22.65 42.45-21.9L42.45-21.9Q42.9-23.4 43.27-24.98 43.65-26.55 43.85-28 44.05-29.45 44.02-30.73 44-32 43.65-32.9L43.65-32.9Q43.55-33.3 43.45-33.3L43.45-33.3Q43.4-33.3 43.4-32.9L43.4-32.9Q43.3-29.7 42.35-26.83 41.4-23.95 40.45-21.35L40.45-21.35Q39.7-19.25 38.87-17.18 38.05-15.1 37.47-13.05 36.9-11 36.65-9.03 36.4-7.05 36.75-5.2L36.75-5.2Q36.8-5 36.92-4.73 37.05-4.45 37.15-4.45L37.15-4.45Q37.25-4.45 37.22-4.7 37.2-4.95 37.25-5.2L37.25-5.2Q37.5-6.95 38.2-9.43 38.9-11.9 39.85-14.4L39.85-14.4Q40.4-14.9 41.17-15.58 41.95-16.25 42.72-16.8 43.5-17.35 44.15-17.63 44.8-17.9 45.1-17.65L45.1-17.65Q45.5-17.25 45.4-16.18 45.3-15.1 44.92-13.8 44.55-12.5 44.05-11.28 43.55-10.05 43.2-9.4ZM41.75-27.35L41.75-27.35Q42.05-28.4 42.22-29.88 42.4-31.35 42.35-32.83 42.3-34.3 41.97-35.63 41.65-36.95 41-37.75L41-37.75Q40.9-37.85 40.8-37.98 40.7-38.1 40.6-38.1L40.6-38.1Q40.45-38.1 40.65-37.6L40.65-37.6Q41.1-36.6 40.95-34.63 40.8-32.65 40.35-30.4 39.9-28.15 39.3-26 38.7-23.85 38.2-22.6L38.2-22.6Q37.9-21.9 37.57-20.9 37.25-19.9 36.95-18.88 36.65-17.85 36.37-16.88 36.1-15.9 35.95-15.2L35.95-15.2Q35.95-14.95 35.87-14.5 35.8-14.05 35.85-14.05L35.85-14.05Q36.1-13.95 36.27-14.4 36.45-14.85 36.6-14.95L36.6-14.95Q38-17.8 39.37-20.98 40.75-24.15 41.75-27.35ZM36.4-3.55L36.4-3.55Q36.85-2.8 37.55-2.33 38.25-1.85 38.95-1.7L38.95-1.7Q39.2-1.65 39.5-1.58 39.8-1.5 39.8-1.3L39.8-1.3Q39.75-1.15 39.35-1.05L39.35-1.05Q39.15-1 38.9-1L38.9-1Q38.05-1.05 37.22-1.3 36.4-1.55 35.5-2.75L35.5-2.75Q34.9-3.55 34.62-4.55 34.35-5.55 34.3-6.45 34.25-7.35 34.37-7.95 34.5-8.55 34.75-8.5L34.75-8.5Q34.8-8.5 34.9-8.22 35-7.95 35.07-7.58 35.15-7.2 35.22-6.88 35.3-6.55 35.35-6.4L35.35-6.4Q35.55-5.55 35.7-5 35.85-4.45 36.4-3.55ZM62.25-26.35L62.25-26.35Q61.4-23.4 60.32-20.3 59.25-17.2 58.1-14.45L58.1-14.45Q58.05-14.3 57.82-13.9 57.6-13.5 57.45-13.55L57.45-13.55Q57.35-13.55 57.32-14.03 57.3-14.5 57.35-14.75L57.35-14.75Q57.45-15.4 57.65-16.35 57.85-17.3 58.07-18.3 58.3-19.3 58.52-20.25 58.75-21.2 59-21.9L59-21.9Q59.1-22.2 59.35-23.2 59.6-24.2 59.9-25.6 60.2-27 60.52-28.6 60.85-30.2 61.07-31.7 61.3-33.2 61.4-34.45 61.5-35.7 61.35-36.35L61.35-36.35Q61.2-36.85 61.35-36.85L61.35-36.85Q61.45-36.85 61.52-36.73 61.6-36.6 61.7-36.5L61.7-36.5Q62.2-35.6 62.47-34.3 62.75-33 62.8-31.6 62.85-30.2 62.7-28.8 62.55-27.4 62.25-26.35ZM60.25-37.9L60.25-37.9Q60.9-35.35 60.57-32.55 60.25-29.75 59.45-26.85 58.65-23.95 57.65-20.98 56.65-18 55.95-15L55.95-15Q55.5-13.1 55.22-11.08 54.95-9.05 54.95-7.08 54.95-5.1 55.27-3.28 55.6-1.45 56.4 0L56.4 0Q56.5 0.2 56.47 0.3 56.45 0.4 56.15 0L56.15 0Q54.85-1.5 54.22-3.4 53.6-5.3 53.5-7.4 53.4-9.5 53.7-11.75 54-14 54.55-16.15L54.55-16.15Q55.3-19.15 56.22-22.05 57.15-24.95 57.97-27.7 58.8-30.45 59.35-33.02 59.9-35.6 59.9-38L59.9-38Q59.9-38.25 59.95-38.25L59.95-38.25Q60.15-38.25 60.25-37.9ZM69.34 0L69.34 0Q67.5-0.85 66.4-2.65 65.3-4.45 65.05-6.8L65.05-6.8Q64.8-9.1 65.05-10.63 65.3-12.15 65.65-13.65L65.65-13.65Q65.7-13.85 65.84-14.33 66-14.8 66.07-15.3 66.15-15.8 66.07-16.18 66-16.55 65.65-16.65L65.65-16.65Q64.95-16.8 64.05-16.03 63.15-15.25 62.32-14.1 61.5-12.95 60.82-11.73 60.15-10.5 59.95-9.8L59.95-9.8Q59.5-8.35 59-7.05 58.5-5.75 58.1-4.45L58.1-4.45Q57.95-3.9 57.85-3.95L57.85-3.95Q57.75-3.95 57.72-4.15 57.7-4.35 57.7-4.6L57.7-4.6Q57.7-6.6 58-8.63 58.3-10.65 58.82-12.65 59.35-14.65 60-16.65 60.65-18.65 61.25-20.7L61.25-20.7Q62.05-23.25 62.77-25.9 63.5-28.55 63.75-31.6L63.75-31.6Q63.75-31.85 63.75-31.88 63.75-31.9 63.8-31.9L63.8-31.9Q63.95-31.9 64.05-31.5L64.05-31.5Q64.3-30.85 64.27-29.68 64.25-28.5 64.07-27.1 63.9-25.7 63.57-24.25 63.25-22.8 62.9-21.65L62.9-21.65Q63.85-22.65 65.15-23.2 66.45-23.75 68.25-23.5L68.25-23.5Q70.3-23.2 71.4-22.03 72.5-20.85 72.9-19.2 73.3-17.55 73.12-15.68 72.95-13.8 72.5-12.05L72.5-12.05Q72.09-10.7 71.75-9.68 71.4-8.65 71.05-7.8 70.7-6.95 70.45-6.2 70.2-5.45 70.05-4.6L70.05-4.6Q69.95-4.05 69.84-4.05L69.84-4.05Q69.75-4.05 69.67-4.25 69.59-4.45 69.55-4.65L69.55-4.65Q69.25-5.75 69.52-7.35 69.8-8.95 70.25-10.73 70.7-12.5 71.07-14.33 71.45-16.15 71.37-17.7 71.3-19.25 70.55-20.43 69.8-21.6 68-22.05L68-22.05Q67.25-22.25 66.37-22.18 65.5-22.1 64.72-21.78 63.95-21.45 63.35-20.85 62.75-20.25 62.55-19.45L62.55-19.45Q63.5-20.45 65-21.1 66.5-21.75 67.9-21.3L67.9-21.3Q69.2-20.9 69.75-19.85 70.3-18.8 70.4-18L70.4-18Q70.59-16.25 70.17-14.83 69.75-13.4 69.2-12.1L69.2-12.1Q69.09-11.95 68.9-11.63 68.7-11.3 68.59-11.35L68.59-11.35Q68.5-11.35 68.5-11.75 68.5-12.15 68.55-12.35L68.55-12.35Q68.7-12.85 68.8-13.93 68.9-15 68.87-16.15 68.84-17.3 68.57-18.3 68.3-19.3 67.7-19.65L67.7-19.65Q67-20.05 66-19.88 65-19.7 63.85-18.65L63.85-18.65Q62.85-17.75 62.15-16.57 61.45-15.4 60.95-13.5L60.95-13.5Q61.25-14.05 61.9-15.05 62.55-16.05 63.37-16.95 64.2-17.85 65.12-18.38 66.05-18.9 66.9-18.5L66.9-18.5Q67.45-18.2 67.62-17.48 67.8-16.75 67.72-15.85 67.65-14.95 67.45-14.1 67.25-13.25 67.09-12.75L67.09-12.75Q66.55-11.25 66.34-9.47 66.15-7.7 66.37-6 66.59-4.3 67.34-2.8 68.09-1.3 69.55-0.25L69.55-0.25Q70 0 69.72 0 69.45 0 69.34 0ZM70.65-0.4L70.65-0.4Q69.95-0.8 69.32-1.25 68.7-1.7 68.09-3L68.09-3Q67.84-3.5 67.72-4.35 67.59-5.2 67.57-5.98 67.55-6.75 67.65-7.28 67.75-7.8 67.9-7.75L67.9-7.75Q68-7.75 68.09-7.53 68.2-7.3 68.25-7 68.3-6.7 68.34-6.43 68.4-6.15 68.4-6.05L68.4-6.05Q68.59-4.95 68.75-4.42 68.9-3.9 69.15-3.3L69.15-3.3Q69.55-2.5 69.95-1.85 70.34-1.2 70.95-0.65L70.95-0.65Q71.2-0.45 71.07-0.35 70.95-0.25 70.65-0.4ZM58 0L58 0Q58.05 0 57.92 0.05 57.8 0.1 57.45 0L57.45 0Q57.05-0.2 56.62-0.75 56.2-1.3 55.95-2.9L55.95-2.9Q55.85-3.55 55.85-4.48 55.85-5.4 55.92-6.23 56-7.05 56.15-7.65 56.3-8.25 56.5-8.2L56.5-8.2Q56.55-8.2 56.6-7.9 56.65-7.6 56.7-7.23 56.75-6.85 56.75-6.48 56.75-6.1 56.75-5.95L56.75-5.95Q56.8-4.85 56.87-4.33 56.95-3.8 57.1-2.9L57.1-2.9Q57.25-1.95 57.45-1.18 57.65-0.4 58 0ZM93.59-17.6L93.59-17.6Q93.19-15.6 92.24-13.6 91.29-11.6 90.44-9.85L90.44-9.85Q90.39-9.75 90.22-9.5 90.04-9.25 89.94-9.25L89.94-9.25Q89.79-9.3 89.79-9.58 89.79-9.85 89.79-9.95L89.79-9.95Q89.84-10.4 89.97-11.03 90.09-11.65 90.19-12.33 90.29-13 90.42-13.63 90.54-14.25 90.69-14.75L90.69-14.75Q91.14-16.45 91.44-17.68 91.74-18.9 91.89-19.9 92.04-20.9 92.07-21.8 92.09-22.7 91.94-23.75L91.94-23.75Q91.89-24.15 91.99-24.25L91.99-24.25Q92.09-24.3 92.24-24.15 92.39-24 92.49-23.85L92.49-23.85Q93.34-22.5 93.64-20.88 93.94-19.25 93.59-17.6ZM94.59-21.25L94.79-20.95Q95.44-20 95.44-18.45 95.44-16.9 95.14-15.28 94.84-13.65 94.39-12.15 93.94-10.65 93.74-9.75L93.74-9.75Q93.34-8 92.64-6.25 91.94-4.5 91.44-3.15L91.44-3.15Q91.39-3 91.29-2.83 91.19-2.65 91.09-2.65L91.09-2.65Q90.99-2.65 90.99-2.85 90.99-3.05 90.99-3.2L90.99-3.2Q90.84-5.95 91.59-8.58 92.34-11.2 93.19-13.9L93.19-13.9Q93.69-15.55 94.14-17.28 94.59-19 94.54-21.05L94.54-21.05Q94.54-21.25 94.59-21.25L94.59-21.25ZM90.09-21.8L90.09-21.8Q87.04-20.55 84.92-18.23 82.79-15.9 81.64-13L81.64-13Q81.14-11.7 80.89-10.68 80.64-9.65 80.49-8.45L80.49-8.45Q80.44-8.2 80.64-7.95 80.84-7.7 81.04-7.95L81.04-7.95Q81.94-9.05 83.34-10.75 84.74-12.45 86.14-14.35 87.54-16.25 88.67-18.2 89.79-20.15 90.09-21.8ZM86.74-4.85L86.74-4.85Q85.99-3.8 85.29-2.9 84.59-2 83.74-1.33 82.89-0.65 81.84-0.25 80.79 0.15 79.44 0.2L79.44 0.2Q77.19 0.3 76.02-0.95 74.84-2.2 74.39-4 73.94-5.8 74.07-7.73 74.19-9.65 74.59-10.9L74.59-10.9Q75.14-12.65 75.92-14.23 76.69-15.8 77.57-17.07 78.44-18.35 79.37-19.28 80.29-20.2 81.19-20.7L81.19-20.7Q81.24-20.7 81.42-20.8 81.59-20.9 81.59-20.75L81.59-20.75Q81.64-20.75 81.54-20.6 81.44-20.45 81.34-20.35L81.34-20.35Q78.74-17.65 77.22-14.25 75.69-10.85 75.49-7.25L75.49-7.25Q75.44-6.35 75.57-5.3 75.69-4.25 76.07-3.33 76.44-2.4 77.14-1.78 77.84-1.15 79.04-1.15L79.04-1.15Q79.99-1.15 80.79-1.48 81.59-1.8 82.29-2.33 82.99-2.85 83.57-3.48 84.14-4.1 84.59-4.65L84.59-4.65Q85.59-5.9 86.44-7.25L86.44-7.25Q86.44-8.25 86.57-9.2 86.69-10.15 86.94-11.1L86.94-11.1Q87.09-11.8 87.22-12.23 87.34-12.65 87.47-13.03 87.59-13.4 87.72-13.83 87.84-14.25 88.09-14.95L88.09-14.95Q87.29-13.55 86.52-12.33 85.74-11.1 84.87-9.98 83.99-8.85 83.07-7.78 82.14-6.7 81.04-5.6L81.04-5.6Q80.19-4.75 79.64-5.05 79.09-5.35 78.99-6.45L78.99-6.45Q78.89-8.15 79.17-9.75 79.44-11.35 80.14-13.1L80.14-13.1Q80.79-14.7 81.77-16.2 82.74-17.7 84.02-18.93 85.29-20.15 86.84-21.03 88.39-21.9 90.14-22.2L90.14-22.2Q90.24-22.75 90.32-23.15 90.39-23.55 90.44-23.95L90.44-23.95Q90.54-24.5 90.54-24.5L90.54-24.5Q90.64-24.55 90.77-24.4 90.89-24.25 90.99-24L90.99-24Q91.59-22.35 91.39-20.7 91.19-19.05 90.67-17.35 90.14-15.65 89.44-13.88 88.74-12.1 88.29-10.3L88.29-10.3Q87.69-7.75 87.97-5.03 88.24-2.3 90.09-0.1L90.09-0.1Q90.24 0.1 90.24 0.1L90.24 0.1Q90.19 0.15 89.94 0L89.94 0Q88.49-0.9 87.77-2.18 87.04-3.45 86.74-4.85ZM88.49-22.55L88.49-22.55Q88.59-22.45 88.47-22.4 88.34-22.35 87.94-22.25L87.94-22.25Q87.29-22.05 86.37-21.5 85.44-20.95 84.42-20.1 83.39-19.25 82.39-18.13 81.39-17 80.64-15.7L80.64-15.7Q79.89-14.35 79.37-13.05 78.84-11.75 78.52-10.68 78.19-9.6 78.04-8.83 77.89-8.05 77.89-7.75L77.89-7.75Q77.89-7 77.89-6.18 77.89-5.35 78.09-4.7 78.29-4.05 78.79-3.7 79.29-3.35 80.29-3.5L80.29-3.5Q80.34-3.5 80.54-3.58 80.74-3.65 80.94-3.73 81.14-3.8 81.32-3.85 81.49-3.9 81.54-3.9L81.54-3.9Q81.59-3.8 81.47-3.65 81.34-3.5 81.14-3.33 80.94-3.15 80.77-3 80.59-2.85 80.54-2.8L80.54-2.8Q79.29-2.05 78.44-2.35 77.59-2.65 77.12-3.48 76.64-4.3 76.47-5.43 76.29-6.55 76.34-7.45L76.34-7.45Q76.44-9.2 76.89-10.93 77.34-12.65 78.04-14.4L78.04-14.4Q78.59-15.75 79.69-17.18 80.79-18.6 82.17-19.8 83.54-21 85.04-21.78 86.54-22.55 87.94-22.6L87.94-22.6Q88.44-22.6 88.49-22.55ZM91.44-0.1L91.44-0.1Q91.54 0.05 91.49 0.1L91.49 0.1Q91.34 0.1 91.09 0L91.09 0Q90.94-0.1 90.29-0.6 89.64-1.1 89.34-2.2L89.34-2.2Q89.24-2.6 89.17-3.23 89.09-3.85 89.09-4.4 89.09-4.95 89.17-5.35 89.24-5.75 89.39-5.75L89.39-5.75Q89.54-5.75 89.72-5.15 89.89-4.55 89.94-4.4L89.94-4.4Q90.09-3.7 90.22-3.18 90.34-2.65 90.49-2.2L90.49-2.2Q90.69-1.65 91.02-0.95 91.34-0.25 91.44-0.1ZM113.64-17.35L113.64-17.35Q113.64-14.85 112.97-12.13 112.29-9.4 111.19-6.75 110.09-4.1 108.67-1.73 107.24 0.65 105.74 2.35L105.74 2.35Q105.19 2.95 105.09 2.9 104.99 2.85 105.19 2.15L105.19 2.15Q105.49 1.35 105.97 0.35 106.44-0.65 106.92-1.63 107.39-2.6 107.87-3.5 108.34-4.4 108.64-5L108.64-5Q108.99-5.75 109.44-6.98 109.89-8.2 110.32-9.7 110.74-11.2 111.14-12.85 111.54-14.5 111.84-16.03 112.14-17.55 112.32-18.82 112.49-20.1 112.44-20.9L112.44-20.9Q112.39-21.8 112.47-22.08 112.54-22.35 112.64-22.28 112.74-22.2 112.87-21.95 112.99-21.7 113.09-21.5L113.09-21.5Q113.44-20.5 113.54-19.25 113.64-18 113.64-17.35ZM103.79-3.55L103.79-3.55Q103.44-3.15 102.84-2.8 102.24-2.45 101.69-2.45L101.69-2.45Q100.49-2.45 99.72-3.15 98.94-3.85 98.49-4.88 98.04-5.9 97.87-7.05 97.69-8.2 97.69-9.1L97.69-9.1Q97.69-10.45 97.97-12.23 98.24-14 98.82-15.78 99.39-17.55 100.22-19.13 101.04-20.7 102.19-21.65L102.19-21.65Q102.49-21.85 102.74-22.03 102.99-22.2 102.59-21.5L102.59-21.5Q102.29-20.95 102.02-20.55 101.74-20.15 101.59-19.65L101.59-19.65Q100.79-18.2 100.32-16.6 99.84-15 99.54-13.35L99.54-13.35Q99.09-11.15 99.09-8.95L99.09-8.95Q99.09-8.15 99.17-7.2 99.24-6.25 99.54-5.4 99.84-4.55 100.47-3.98 101.09-3.4 102.19-3.4L102.19-3.4Q102.49-3.4 102.89-3.55 103.29-3.7 103.54-3.85L103.54-3.85Q103.94-4 103.94-3.9 103.94-3.8 103.79-3.55ZM114.94-16.5L114.94-16.5Q115.14-15.75 115.14-14.75L115.14-14.75Q115.14-12.7 114.54-10.23 113.94-7.75 112.97-5.1 111.99-2.45 110.67 0.25 109.34 2.95 107.92 5.45 106.49 7.95 104.99 10.13 103.49 12.3 102.14 13.9L102.14 13.9Q102.09 13.95 101.97 14.1 101.84 14.25 101.72 14.38 101.59 14.5 101.49 14.55 101.39 14.6 101.39 14.4L101.39 14.4Q101.39 14.3 102.02 13.08 102.64 11.85 103.59 10.03 104.54 8.2 105.67 6.08 106.79 3.95 107.84 2 108.89 0.05 109.67-1.45 110.44-2.95 110.69-3.5L110.69-3.5Q112.14-6.7 113.17-9.93 114.19-13.15 114.59-16.6L114.59-16.6Q114.64-17 114.67-17.03 114.69-17.05 114.94-16.5ZM111.69-20.2L111.69-20.2Q111.69-17.4 110.92-14.53 110.14-11.65 108.99-8.85 107.84-6.05 106.47-3.43 105.09-0.8 103.84 1.45L103.84 1.45Q101.59 5.65 100.04 9.98 98.49 14.3 97.89 19L97.89 19Q97.79 19.55 97.74 19.45L97.74 19.45Q97.69 19.45 97.62 19.18 97.54 18.9 97.49 18.57 97.44 18.25 97.42 17.9 97.39 17.55 97.39 17.3L97.39 17.3Q97.39 15.05 97.89 12.75 98.39 10.45 99.19 8.25 99.99 6.05 100.97 3.95 101.94 1.85 102.94 0L102.94 0 101.59 0Q100.09 0 98.99-0.7 97.89-1.4 97.19-2.55 96.49-3.7 96.12-5.25 95.74-6.8 95.74-8.5L95.74-8.5Q95.74-9.15 95.89-10.33 96.04-11.5 96.34-12.78 96.64-14.05 97.09-15.28 97.54-16.5 98.09-17.25L98.09-17.25Q98.49-17.8 98.54-17.7 98.59-17.6 98.44-17.05L98.44-17.05Q97.79-15.15 97.42-13.1 97.04-11.05 97.04-9.05L97.04-9.05Q97.04-7.9 97.19-6.55 97.34-5.2 97.82-4.08 98.29-2.95 99.19-2.2 100.09-1.45 101.64-1.45L101.64-1.45Q102.74-1.45 103.64-2.2 104.54-2.95 105.27-4.05 105.99-5.15 106.57-6.45 107.14-7.75 107.59-8.85L107.59-8.85Q107.09-8.15 106.42-7.48 105.74-6.8 104.99-6.25 104.24-5.7 103.49-5.35 102.74-5 102.04-5L102.04-5Q101.34-5 100.94-5.45 100.54-5.9 100.32-6.58 100.09-7.25 100.04-7.95 99.99-8.65 99.99-9.2L99.99-9.2Q99.99-11 100.22-12.83 100.44-14.65 100.94-16.43 101.44-18.2 102.27-19.83 103.09-21.45 104.29-22.8L104.29-22.8Q104.39-22.95 104.54-23.08 104.69-23.2 104.82-23.25 104.94-23.3 104.94-23.23 104.94-23.15 104.74-22.8L104.74-22.8Q103.29-20.1 102.37-16.8 101.44-13.5 101.44-10.4L101.44-10.4Q101.44-10.1 101.47-9.43 101.49-8.75 101.62-8.05 101.74-7.35 102.02-6.83 102.29-6.3 102.74-6.3L102.74-6.3Q102.89-6.3 103.14-6.45L103.14-6.45Q105.24-7.5 106.69-9.35 108.14-11.2 109.09-13.48 110.04-15.75 110.47-18.18 110.89-20.6 110.94-22.8L110.94-22.8Q110.94-23.6 111.04-23.65 111.14-23.7 111.39-22.8L111.39-22.8Q111.69-21.35 111.69-20.2ZM102.14 9.4L102.14 9.4Q102.14 9.75 101.92 10.55 101.69 11.35 101.39 12.25 101.09 13.15 100.79 14 100.49 14.85 100.34 15.3L100.34 15.3Q99.94 16.4 99.74 17.48 99.54 18.55 99.29 19.7L99.29 19.7Q99.29 19.8 99.24 20 99.19 20.2 99.04 20.2L99.04 20.2Q98.94 20.2 98.89 19.95 98.84 19.7 98.84 19.6L98.84 19.6Q98.74 19.2 98.72 18.5 98.69 17.8 98.74 17.4L98.74 17.4Q98.89 16.15 99.29 14.73 99.69 13.3 100.17 12.08 100.64 10.85 101.14 10.05 101.64 9.25 101.99 9.25L101.99 9.25Q102.14 9.25 102.14 9.4Z" opacity="1" transform="matrix(1,0,0,1,0,0)" fill="#ffffff" class="wordmark-text-0" data-fill-palette-color="primary" id="text-0"></path></svg></g></svg></g><g transform="matrix(1,0,0,1,0,157.22175052085487)"><svg viewBox="0 0 143.50565145599998 9.56961073039474" height="9.56961073039474" width="143.50565145599998"><g transform="matrix(1,0,0,1,0,0)"><svg width="143.50565145599998" viewBox="1.5 -38.7 745.2 49.7" height="9.56961073039474" data-palette-color="#ffffff"><path d="M14.65 0.55L14.65 0.55Q9.1 0.55 5.3-4.1 1.5-8.75 1.5-15.5L1.5-15.5Q1.5-23.75 6.08-29.4 10.65-35.05 17.3-35.05L17.3-35.05Q19.9-35.05 22.13-34.52 24.35-34 25.3-33.45L25.3-33.45 26.2-32.9 22.8-25.95Q21.65-26.95 19.55-27.83 17.45-28.7 15.75-28.7L15.75-28.7Q12.3-28.7 10.23-25.85 8.15-23 8.15-17.73 8.15-12.45 10.3-9.08 12.45-5.7 16.15-5.7L16.15-5.7Q18.55-5.7 20.5-7.2 22.45-8.7 23.25-11.2L23.25-11.2 27.4-8.8Q25.75-4.4 22.35-1.93 18.95 0.55 14.65 0.55ZM29.9-24.15L29.9-24.15 35.95-25.45Q36.4-21.6 36.55-18.15L36.55-18.15Q41.1-25.2 45.1-25.2L45.1-25.2 44.55-17.4Q41.65-17.4 39.97-16.88 38.3-16.35 36.55-14.8L36.55-14.8 36.55-13 37.1-1.25 30.4 0 31-12.15Q30.8-18.85 29.9-24.15ZM53.24 0Q50.3 0 48.42-1.88 46.55-3.75 46.55-6.93 46.55-10.1 49.45-12.43 52.34-14.75 56.49-14.75L56.49-14.75 59.89-14.75 59.89-15.6Q59.89-18.05 58.89-18.95 57.89-19.85 55.14-19.85L55.14-19.85Q53.99-19.85 52.42-19.38 50.84-18.9 48.89-17.9L48.89-17.9 47.45-21.85Q49.59-23.35 52.67-24.55 55.74-25.75 57.74-25.75L57.74-25.75Q65.59-25.75 65.59-18.15L65.59-18.15 65.59-8.35Q65.59-5.55 67.34-2.1L67.34-2.1 62.05 0.15Q60.8-2.25 60.2-4.15L60.2-4.15Q57.45 0 53.24 0L53.24 0ZM55.34-5.1L55.34-5.1Q57.34-5.1 59.89-7.15L59.89-7.15 59.89-10.5Q57.24-11.1 55.59-11.1L55.59-11.1Q52.45-11.1 52.45-8.3L52.45-8.3Q52.45-6.85 53.24-5.98 54.05-5.1 55.34-5.1ZM86.59-38.25L85.04-32.55Q83.19-33 81.69-33 80.19-33 79.52-32.1 78.84-31.2 78.84-28.95L78.84-28.95 78.79-24.2 84.19-24.2 83.64-20.1 78.79-20.1 78.74-13 79.29-1.25 72.54 0 73.14-12.15 72.94-20.1 69.64-20.1 70.19-24.2 72.84-24.2 72.79-28Q72.79-32.45 75.54-35.58 78.29-38.7 82.24-38.7L82.24-38.7Q84.34-38.7 86.59-38.25L86.59-38.25ZM85.89-24.2L88.79-24.2 88.79-29.65 95.54-30.95 94.89-24.2 100.94-24.2 100.39-20.1 94.69-20.1 94.44-9.65Q94.44-7.3 94.89-6.53 95.34-5.75 96.54-5.75 97.74-5.75 99.74-6.3L99.74-6.3 100.04-2.75Q96.74 0 94.24 0 91.74 0 90.14-1.83 88.54-3.65 88.54-6.6L88.54-6.6 88.84-12.2 88.79-20.1 85.34-20.1 85.89-24.2ZM104.59-24.2L111.29-25.45 110.69-13 111.24-1.25 104.54 0 105.14-12.15 104.59-24.2ZM104.24-32.77Q104.24-34.45 105.54-35.77 106.84-37.1 108.54-37.1 110.24-37.1 111.14-36.18 112.04-35.25 112.04-33.4 112.04-31.55 110.76-30.23 109.49-28.9 107.81-28.9 106.14-28.9 105.19-30 104.24-31.1 104.24-32.77ZM131.29-12.65Q131.29-16.1 130.69-17.25 130.09-18.4 127.89-18.4 125.69-18.4 122.89-16.65L122.89-16.65 122.89-13 123.44-1.25 116.74 0 117.34-12.15Q117.14-18.85 116.24-24.15L116.24-24.15 122.29-25.45Q122.64-22.55 122.79-19.8L122.79-19.8Q123.54-20.8 124.49-21.78 125.44-22.75 127.49-23.98 129.54-25.2 131.81-25.2 134.09-25.2 135.64-23.43 137.19-21.65 137.19-18.6L137.19-18.6 136.89-13 137.44-1 130.69 0.25 131.29-12.65ZM141.18 4.95L141.18 4.95Q141.18 0.55 149.38-1.95L149.38-1.95Q147.43-2.95 147.43-4.55L147.43-4.55Q147.43-5.2 147.93-5.85 148.43-6.5 149.38-7.2L149.38-7.2 149.38-7.6Q145.78-7.6 143.66-9.6 141.53-11.6 141.53-14.95L141.53-14.95Q141.53-19.3 145.08-22.53 148.63-25.75 153.48-25.75L153.48-25.75Q154.73-25.75 157.13-25.25 159.53-24.75 161.83-24.75L161.83-24.75 165.68-24.75 165.18-20.4 161.43-20.85Q161.93-19.4 161.93-17.55 161.93-15.7 161.06-13.88 160.18-12.05 158.96-10.95 157.73-9.85 156.51-9.03 155.28-8.2 154.41-7.58 153.53-6.95 153.53-6.45L153.53-6.45Q153.53-5.5 155.53-4.8L155.53-4.8Q160.83-2.65 162.71-1.15 164.58 0.35 164.58 2.55L164.58 2.55Q164.58 6.25 160.86 8.63 157.13 11 151.98 11 146.83 11 144.01 9.35 141.18 7.7 141.18 4.95ZM156.28-16.05L156.28-16.05Q156.28-18.5 155.18-19.65 154.08-20.8 151.73-20.8L151.73-20.8Q147.18-20.8 147.18-16.32 147.18-11.85 152.03-11.85L152.03-11.85Q156.28-11.85 156.28-16.05ZM158.08 3.3L158.08 3.3Q158.08 2.4 157.13 1.63 156.18 0.85 153.73-0.2L153.73-0.2Q150.08 0.8 148.71 1.65 147.33 2.5 147.33 3.75 147.33 5 148.71 5.78 150.08 6.55 152.53 6.55 154.98 6.55 156.53 5.65 158.08 4.75 158.08 3.3ZM185.53-15.5L187.93-6.25 188.53-6.25 191.03-14.85 196.28-34.8 202.33-33.9 196.38-14.05 192.48-0.4 183.23 0.25 179.68-13.1 173.88-33.55 180.98-34.8 185.53-15.5ZM205.98-24.2L212.68-25.45 212.08-13 212.63-1.25 205.93 0 206.53-12.15 205.98-24.2ZM205.63-32.77Q205.63-34.45 206.93-35.77 208.23-37.1 209.93-37.1 211.63-37.1 212.53-36.18 213.43-35.25 213.43-33.4 213.43-31.55 212.15-30.23 210.88-28.9 209.2-28.9 207.53-28.9 206.58-30 205.63-31.1 205.63-32.77ZM225.72-4.65L225.72-4.65Q228.32-4.65 228.32-6.95L228.32-6.95Q228.32-7.75 227.2-8.45 226.07-9.15 224.45-9.85 222.82-10.55 221.2-11.43 219.57-12.3 218.45-13.85 217.32-15.4 217.32-17.4L217.32-17.4Q217.32-20.75 220.27-23.25 223.22-25.75 227.07-25.75L227.07-25.75Q228.87-25.75 230.6-25.33 232.32-24.9 233.92-24L233.92-24 230.57-17.9Q230.22-18.2 229.67-18.65 229.12-19.1 227.6-19.83 226.07-20.55 224.9-20.55 223.72-20.55 223.1-20.03 222.47-19.5 222.47-18.57 222.47-17.65 224.2-16.73 225.92-15.8 227.97-15.03 230.02-14.25 231.75-12.48 233.47-10.7 233.47-8.25L233.47-8.25Q233.47-4.75 230.6-2.1 227.72 0.55 223.97 0.55L223.97 0.55Q221.57 0.55 219.5-0.5 217.42-1.55 216.52-2.6L216.52-2.6 215.62-3.65 219.57-8.25Q219.87-7.85 220.42-7.25 220.97-6.65 222.6-5.65 224.22-4.65 225.72-4.65ZM237.87-24.2L244.57-25.45 243.97-13 244.52-1.25 237.82 0 238.42-12.15 237.87-24.2ZM237.52-32.77Q237.52-34.45 238.82-35.77 240.12-37.1 241.82-37.1 243.52-37.1 244.42-36.18 245.32-35.25 245.32-33.4 245.32-31.55 244.05-30.23 242.77-28.9 241.1-28.9 239.42-28.9 238.47-30 237.52-31.1 237.52-32.77ZM248.57-10.45Q248.57-16.85 252.02-21.3 255.47-25.75 260.09-25.75 264.72-25.75 267.29-22.75 269.87-19.75 269.87-14.8L269.87-14.8Q269.87-8.2 266.54-3.83 263.22 0.55 258.17 0.55L258.17 0.55Q254.02 0.55 251.29-2.58 248.57-5.7 248.57-10.45L248.57-10.45ZM264.27-12.2L264.27-12.2Q264.27-19.45 259.32-19.45L259.32-19.45Q254.17-19.45 254.17-12.65L254.17-12.65Q254.17-9.1 255.62-7.1 257.07-5.1 259.44-5.1 261.82-5.1 263.04-6.93 264.27-8.75 264.27-12.2ZM288.67-12.65Q288.67-16.1 288.07-17.25 287.47-18.4 285.27-18.4 283.07-18.4 280.27-16.65L280.27-16.65 280.27-13 280.82-1.25 274.12 0 274.72-12.15Q274.52-18.85 273.62-24.15L273.62-24.15 279.67-25.45Q280.02-22.55 280.17-19.8L280.17-19.8Q280.92-20.8 281.87-21.78 282.82-22.75 284.87-23.98 286.92-25.2 289.19-25.2 291.47-25.2 293.02-23.43 294.57-21.65 294.57-18.6L294.57-18.6 294.27-13 294.82-1 288.07 0.25 288.67-12.65ZM307.86-4.65L307.86-4.65Q310.46-4.65 310.46-6.95L310.46-6.95Q310.46-7.75 309.34-8.45 308.21-9.15 306.59-9.85 304.96-10.55 303.34-11.43 301.71-12.3 300.59-13.85 299.46-15.4 299.46-17.4L299.46-17.4Q299.46-20.75 302.41-23.25 305.36-25.75 309.21-25.75L309.21-25.75Q311.01-25.75 312.74-25.33 314.46-24.9 316.06-24L316.06-24 312.71-17.9Q312.36-18.2 311.81-18.65 311.26-19.1 309.74-19.83 308.21-20.55 307.04-20.55 305.86-20.55 305.24-20.03 304.61-19.5 304.61-18.57 304.61-17.65 306.34-16.73 308.06-15.8 310.11-15.03 312.16-14.25 313.89-12.48 315.61-10.7 315.61-8.25L315.61-8.25Q315.61-4.75 312.74-2.1 309.86 0.55 306.11 0.55L306.11 0.55Q303.71 0.55 301.64-0.5 299.56-1.55 298.66-2.6L298.66-2.6 297.76-3.65 301.71-8.25Q302.01-7.85 302.56-7.25 303.11-6.65 304.74-5.65 306.36-4.65 307.86-4.65ZM325.36-3.35L325.36-3.35Q325.36 0.9 319.16 5.65L319.16 5.65 317.11 4.15Q320.06 0.7 320.06-1.8L320.06-1.8Q320.06-3.35 318.76-5.75L318.76-5.75 323.66-7.7Q325.36-5.55 325.36-3.35ZM349.7 0.55L349.7 0.55Q344.16 0.55 340.36-4.1 336.56-8.75 336.56-15.5L336.56-15.5Q336.56-23.75 341.13-29.4 345.7-35.05 352.36-35.05L352.36-35.05Q354.95-35.05 357.18-34.52 359.41-34 360.36-33.45L360.36-33.45 361.25-32.9 357.86-25.95Q356.7-26.95 354.61-27.83 352.5-28.7 350.81-28.7L350.81-28.7Q347.36-28.7 345.28-25.85 343.2-23 343.2-17.73 343.2-12.45 345.36-9.08 347.5-5.7 351.2-5.7L351.2-5.7Q353.61-5.7 355.56-7.2 357.5-8.7 358.31-11.2L358.31-11.2 362.45-8.8Q360.81-4.4 357.41-1.93 354 0.55 349.7 0.55ZM364.95-24.15L364.95-24.15 371-25.45Q371.45-21.6 371.6-18.15L371.6-18.15Q376.15-25.2 380.15-25.2L380.15-25.2 379.6-17.4Q376.7-17.4 375.03-16.88 373.35-16.35 371.6-14.8L371.6-14.8 371.6-13 372.15-1.25 365.45 0 366.05-12.15Q365.85-18.85 364.95-24.15ZM392.3-5.1L392.3-5.1Q393.75-5.1 395.35-5.85 396.95-6.6 397.85-7.35L397.85-7.35 398.75-8.1 401.05-5.3Q400.55-4.45 399.5-3.35 398.45-2.25 397.38-1.48 396.3-0.7 394.53-0.08 392.75 0.55 390.85 0.55L390.85 0.55Q386.8 0.55 384.25-2.53 381.7-5.6 381.7-10.45L381.7-10.45Q381.7-16.55 385.25-21.15 388.8-25.75 393.55-25.75L393.55-25.75Q397.2-25.75 399.23-23.7 401.25-21.65 401.25-17.95L401.25-17.95Q401.25-15.75 400.5-12.95L400.5-12.95 399.5-11.9 387-10.75Q387.85-5.1 392.3-5.1ZM392.3-20.6L392.3-20.6Q390.1-20.6 388.6-18.82 387.1-17.05 386.85-14.3L386.85-14.3 395.35-15.35Q395.5-16.5 395.5-17.25L395.5-17.25Q395.5-20.6 392.3-20.6ZM410.6 0Q407.65 0 405.77-1.88 403.9-3.75 403.9-6.93 403.9-10.1 406.8-12.43 409.7-14.75 413.85-14.75L413.85-14.75 417.25-14.75 417.25-15.6Q417.25-18.05 416.25-18.95 415.25-19.85 412.5-19.85L412.5-19.85Q411.35-19.85 409.77-19.38 408.2-18.9 406.25-17.9L406.25-17.9 404.8-21.85Q406.95-23.35 410.02-24.55 413.1-25.75 415.1-25.75L415.1-25.75Q422.95-25.75 422.95-18.15L422.95-18.15 422.95-8.35Q422.95-5.55 424.7-2.1L424.7-2.1 419.4 0.15Q418.15-2.25 417.55-4.15L417.55-4.15Q414.8 0 410.6 0L410.6 0ZM412.7-5.1L412.7-5.1Q414.7-5.1 417.25-7.15L417.25-7.15 417.25-10.5Q414.6-11.1 412.95-11.1L412.95-11.1Q409.8-11.1 409.8-8.3L409.8-8.3Q409.8-6.85 410.6-5.98 411.4-5.1 412.7-5.1ZM428.1-24.2L431-24.2 431-29.65 437.75-30.95 437.1-24.2 443.15-24.2 442.6-20.1 436.9-20.1 436.65-9.65Q436.65-7.3 437.1-6.53 437.55-5.75 438.75-5.75 439.95-5.75 441.95-6.3L441.95-6.3 442.25-2.75Q438.95 0 436.45 0 433.95 0 432.35-1.83 430.75-3.65 430.75-6.6L430.75-6.6 431.05-12.2 431-20.1 427.55-20.1 428.1-24.2ZM446.79-24.2L453.49-25.45 452.89-13 453.44-1.25 446.74 0 447.34-12.15 446.79-24.2ZM446.44-32.77Q446.44-34.45 447.74-35.77 449.04-37.1 450.74-37.1 452.44-37.1 453.34-36.18 454.24-35.25 454.24-33.4 454.24-31.55 452.97-30.23 451.69-28.9 450.02-28.9 448.34-28.9 447.39-30 446.44-31.1 446.44-32.77ZM473.49-12.65Q473.49-16.1 472.89-17.25 472.29-18.4 470.09-18.4 467.89-18.4 465.09-16.65L465.09-16.65 465.09-13 465.64-1.25 458.94 0 459.54-12.15Q459.34-18.85 458.44-24.15L458.44-24.15 464.49-25.45Q464.84-22.55 464.99-19.8L464.99-19.8Q465.74-20.8 466.69-21.78 467.64-22.75 469.69-23.98 471.74-25.2 474.02-25.2 476.29-25.2 477.84-23.43 479.39-21.65 479.39-18.6L479.39-18.6 479.09-13 479.64-1 472.89 0.25 473.49-12.65ZM483.39 4.95L483.39 4.95Q483.39 0.55 491.59-1.95L491.59-1.95Q489.64-2.95 489.64-4.55L489.64-4.55Q489.64-5.2 490.14-5.85 490.64-6.5 491.59-7.2L491.59-7.2 491.59-7.6Q487.99-7.6 485.86-9.6 483.74-11.6 483.74-14.95L483.74-14.95Q483.74-19.3 487.29-22.53 490.84-25.75 495.69-25.75L495.69-25.75Q496.94-25.75 499.34-25.25 501.74-24.75 504.04-24.75L504.04-24.75 507.89-24.75 507.39-20.4 503.64-20.85Q504.14-19.4 504.14-17.55 504.14-15.7 503.26-13.88 502.39-12.05 501.16-10.95 499.94-9.85 498.71-9.03 497.49-8.2 496.61-7.58 495.74-6.95 495.74-6.45L495.74-6.45Q495.74-5.5 497.74-4.8L497.74-4.8Q503.04-2.65 504.91-1.15 506.79 0.35 506.79 2.55L506.79 2.55Q506.79 6.25 503.06 8.63 499.34 11 494.19 11 489.04 11 486.21 9.35 483.39 7.7 483.39 4.95ZM498.49-16.05L498.49-16.05Q498.49-18.5 497.39-19.65 496.29-20.8 493.94-20.8L493.94-20.8Q489.39-20.8 489.39-16.32 489.39-11.85 494.24-11.85L494.24-11.85Q498.49-11.85 498.49-16.05ZM500.29 3.3L500.29 3.3Q500.29 2.4 499.34 1.63 498.39 0.85 495.94-0.2L495.94-0.2Q492.29 0.8 490.91 1.65 489.54 2.5 489.54 3.75 489.54 5 490.91 5.78 492.29 6.55 494.74 6.55 497.19 6.55 498.74 5.65 500.29 4.75 500.29 3.3ZM537.63 0L519.33 0 519.93-12.15 519.33-34.5 538.08-34.5 537.53-29.15 526.28-29.15 525.98-20.3 535.98-20.3 535.43-15 525.78-15 525.73-13 526.08-5.3 538.18-5.3 537.63 0ZM563.13-3.3L557.58 0.5 551.63-8.35 545.48 0.5 540.53-2.25 548.38-12.4 540.93-21.6 546.48-25.4 551.93-16.95 557.83-25.5 562.68-22.5 555.23-12.8 563.13-3.3ZM575.08-19.25Q572.88-19.25 571.68-17.68 570.48-16.1 570.48-12.85 570.48-9.6 571.7-7.63 572.93-5.65 575.28-5.65L575.28-5.65Q576.48-5.65 577.63-6.4 578.78-7.15 579.38-7.9L579.38-7.9 579.93-8.7 582.43-6.1Q582.28-5.85 582.05-5.4 581.83-4.95 580.95-3.8 580.08-2.65 579.1-1.78 578.13-0.9 576.58-0.18 575.03 0.55 573.33 0.55L573.33 0.55Q569.58 0.55 567.23-2.5 564.88-5.55 564.88-10.45L564.88-10.45Q564.88-16.55 568.43-21.15 571.98-25.75 576.73-25.75L576.73-25.75Q578.18-25.75 579.63-25.33 581.08-24.9 582.58-24L582.58-24 579.08-17.85Q577.28-19.25 575.08-19.25ZM594.72-5.1L594.72-5.1Q596.17-5.1 597.77-5.85 599.37-6.6 600.27-7.35L600.27-7.35 601.17-8.1 603.47-5.3Q602.97-4.45 601.92-3.35 600.87-2.25 599.8-1.48 598.72-0.7 596.95-0.08 595.17 0.55 593.27 0.55L593.27 0.55Q589.22 0.55 586.67-2.53 584.12-5.6 584.12-10.45L584.12-10.45Q584.12-16.55 587.67-21.15 591.22-25.75 595.97-25.75L595.97-25.75Q599.62-25.75 601.65-23.7 603.67-21.65 603.67-17.95L603.67-17.95Q603.67-15.75 602.92-12.95L602.92-12.95 601.92-11.9 589.42-10.75Q590.27-5.1 594.72-5.1ZM594.72-20.6L594.72-20.6Q592.52-20.6 591.02-18.82 589.52-17.05 589.27-14.3L589.27-14.3 597.77-15.35Q597.92-16.5 597.92-17.25L597.92-17.25Q597.92-20.6 594.72-20.6ZM608.02-37.45L614.87-38.7 614.22-13 614.77-1.25 608.02 0 608.62-12.15 608.02-37.45ZM620.67-37.45L627.52-38.7 626.87-13 627.42-1.25 620.67 0 621.27-12.15 620.67-37.45ZM642.32-5.1L642.32-5.1Q643.77-5.1 645.37-5.85 646.97-6.6 647.87-7.35L647.87-7.35 648.77-8.1 651.07-5.3Q650.57-4.45 649.52-3.35 648.47-2.25 647.39-1.48 646.32-0.7 644.54-0.08 642.77 0.55 640.87 0.55L640.87 0.55Q636.82 0.55 634.27-2.53 631.72-5.6 631.72-10.45L631.72-10.45Q631.72-16.55 635.27-21.15 638.82-25.75 643.57-25.75L643.57-25.75Q647.22-25.75 649.24-23.7 651.27-21.65 651.27-17.95L651.27-17.95Q651.27-15.75 650.52-12.95L650.52-12.95 649.52-11.9 637.02-10.75Q637.87-5.1 642.32-5.1ZM642.32-20.6L642.32-20.6Q640.12-20.6 638.62-18.82 637.12-17.05 636.87-14.3L636.87-14.3 645.37-15.35Q645.52-16.5 645.52-17.25L645.52-17.25Q645.52-20.6 642.32-20.6ZM670.11-12.65Q670.11-16.1 669.51-17.25 668.91-18.4 666.71-18.4 664.51-18.4 661.71-16.65L661.71-16.65 661.71-13 662.26-1.25 655.56 0 656.16-12.15Q655.96-18.85 655.06-24.15L655.06-24.15 661.11-25.45Q661.46-22.55 661.61-19.8L661.61-19.8Q662.36-20.8 663.31-21.78 664.26-22.75 666.31-23.98 668.36-25.2 670.64-25.2 672.91-25.2 674.46-23.43 676.01-21.65 676.01-18.6L676.01-18.6 675.71-13 676.26-1 669.51 0.25 670.11-12.65ZM690.36-19.25Q688.16-19.25 686.96-17.68 685.76-16.1 685.76-12.85 685.76-9.6 686.99-7.63 688.21-5.65 690.56-5.65L690.56-5.65Q691.76-5.65 692.91-6.4 694.06-7.15 694.66-7.9L694.66-7.9 695.21-8.7 697.71-6.1Q697.56-5.85 697.34-5.4 697.11-4.95 696.24-3.8 695.36-2.65 694.39-1.78 693.41-0.9 691.86-0.18 690.31 0.55 688.61 0.55L688.61 0.55Q684.86 0.55 682.51-2.5 680.16-5.55 680.16-10.45L680.16-10.45Q680.16-16.55 683.71-21.15 687.26-25.75 692.01-25.75L692.01-25.75Q693.46-25.75 694.91-25.33 696.36-24.9 697.86-24L697.86-24 694.36-17.85Q692.56-19.25 690.36-19.25ZM710.01-5.1L710.01-5.1Q711.46-5.1 713.06-5.85 714.66-6.6 715.56-7.35L715.56-7.35 716.46-8.1 718.76-5.3Q718.26-4.45 717.21-3.35 716.16-2.25 715.08-1.48 714.01-0.7 712.23-0.08 710.46 0.55 708.56 0.55L708.56 0.55Q704.51 0.55 701.96-2.53 699.41-5.6 699.41-10.45L699.41-10.45Q699.41-16.55 702.96-21.15 706.51-25.75 711.26-25.75L711.26-25.75Q714.91-25.75 716.93-23.7 718.96-21.65 718.96-17.95L718.96-17.95Q718.96-15.75 718.21-12.95L718.21-12.95 717.21-11.9 704.71-10.75Q705.56-5.1 710.01-5.1ZM710.01-20.6L710.01-20.6Q707.81-20.6 706.31-18.82 704.81-17.05 704.56-14.3L704.56-14.3 713.06-15.35Q713.21-16.5 713.21-17.25L713.21-17.25Q713.21-20.6 710.01-20.6ZM721.91-3.35Q721.91-4.95 723.08-6.18 724.26-7.4 725.91-7.4L725.91-7.4Q729.16-7.4 729.16-4.1L729.16-4.1Q729.16-2.2 727.98-0.95 726.81 0.3 725.23 0.3 723.66 0.3 722.78-0.73 721.91-1.75 721.91-3.35ZM733.5-31.2L733.5-31.2 738.95-31.7Q737.85-25 735.8-19.5L735.8-19.5 732.95-19.65Q733.5-25.95 733.5-31.2ZM741.25-31.2L741.25-31.2 746.7-31.7Q745.6-25 743.55-19.5L743.55-19.5 740.7-19.65Q741.25-25.95 741.25-31.2Z" opacity="1" transform="matrix(1,0,0,1,0,0)" fill="#ffffff" class="slogan-text-1" data-fill-palette-color="secondary" id="text-1"></path></svg></g></svg></g></svg></g></svg></g><g transform="matrix(1,0,0,1,0,17.11872844002481)"><svg viewBox="0 0 132.5539043712 132.5539043712" height="132.5539043712" width="132.5539043712"><g><svg></svg></g><g id="icon-0"><svg viewBox="0 0 132.5539043712 132.5539043712" height="132.5539043712" width="132.5539043712"><g><rect width="120.52586490047999" height="120.52586490047999" x="6.014019735360002" y="6.014019735360002" fill="#ffffff" data-fill-palette-color="accent"></rect><rect width="120.52586490047999" height="120.52586490047999" x="12.02803947072" y="2.6645352591003757e-15" fill="#ffffff" opacity="0.5" data-fill-palette-color="accent"></rect></g><g transform="matrix(1,0,0,1,17.1829135296,34.183216057875946)"><svg viewBox="0 0 98.18807731199999 64.1874722554481" height="64.1874722554481" width="98.18807731199999"><g><svg xmlns="http://www.w3.org/2000/svg" xmlns:xlink="http://www.w3.org/1999/xlink" version="1.1" x="0" y="0" viewBox="28.50666734072633 0.3250000000000002 1223.5750307688716 799.875" enable-background="new 0 0 1280 800" xml:space="preserve" id="dxe-0" width="98.18807731199999" height="64.1874722554481" class="icon-dxe-0" data-fill-palette-color="quaternary"><path d="M1129.8 604.9C1122 597.1 1105.7 591.2 1094 591.2 793.5 597.1 493 597.1 191.9 591.2 180.2 591.2 163.9 597.1 156.1 604.9 107.3 652.4 83.3 675.8 38.4 721.3 31.2 728.5 34.5 735 46.2 735.6 444.2 754.5 841.6 754.5 1239.7 734.9 1251.4 734.2 1254.7 727.7 1247.5 720.6 1202.6 675.8 1179.2 652.4 1129.8 604.9M514.5 727.8C502.8 727.8 500.2 721.3 508.6 713.5 513.8 708.9 516.4 706.3 521.6 701.1 530.1 693.3 546.3 686.8 558 686.8 626.9 687.5 661.4 687.5 730.4 686.8 742.1 686.8 758.4 693.3 766.8 701.1 772 705.7 774.6 708.3 779.8 713.5 788.3 721.3 785.7 727.8 773.9 727.8 688.1 728.5 601 728.5 514.5 727.8" fill="#000000" data-fill-palette-color="quaternary"></path><path d="M1249.4 774C1248.7 778.6 1244.2 783.1 1239 783.1 839 805.9 441 805.9 41 783.1 36.4 783.1 31.9 778.5 30.6 774 29.9 768.1 29.3 765.5 28.6 759.7 27.9 755.1 31.2 751.2 36.4 751.2 439 772 841 772 1244.2 751.2 1248.8 751.2 1252.7 754.5 1252 759.7 1250.7 765.5 1250.1 768.1 1249.4 774" fill="#000000" data-fill-palette-color="quaternary"></path><g fill="#c8c8c8" data-fill-palette-color="quaternary"><path d="M642 195.1C593.9 195.1 554.8 234.1 554.8 282.3 554.8 327.8 592.5 337.6 604.2 400 604.2 401.3 604.9 403.9 606.8 403.9 618.5 405.9 630.2 406.5 642.6 406.5S666.7 405.8 678.4 403.9C680.4 403.9 681 401.9 681 400.6 694 342.1 730.4 327.8 730.4 282.2 729.8 234.8 690.7 195.1 642 195.1" fill="#000000" data-fill-palette-color="quaternary"></path><g fill="#c8c8c8" data-fill-palette-color="quaternary"><path d="M651.1 419.5H633.5L613.3 418.2C608.7 417.5 605.5 420.8 606.1 426L610 452C610.7 456.6 615.2 461.8 619.8 463.1 619.8 463.1 624.4 464.4 641.9 464.4 659.5 464.4 664 463.1 664 463.1 668.6 461.8 673.1 456.6 673.8 452L677.7 426C678.4 421.4 675.1 417.5 670.5 418.2z" fill="#000000" data-fill-palette-color="quaternary"></path></g></g><path d="M543.1 228.3C541.8 228.3 540.5 227.6 539.2 227L486.5 196.4C482.6 194.4 481.3 189.2 483.9 185.3 485.9 181.4 491.1 180.1 495 182.7L547.7 213.3C551.6 215.3 552.9 220.5 550.3 224.4 548.3 227 545.7 228.3 543.1 228.3" fill="#000000" data-fill-palette-color="quaternary"></path><path d="M580.8 182.1C578.2 182.1 575.6 180.8 573.6 178.2L543 125.5C541 121.6 542.3 117 545.6 114.4 549.5 112.4 554.1 113.7 556.7 117L587.3 169.7C589.3 173.6 588 178.2 584.7 180.8 583.4 181.5 582.1 182.1 580.8 182.1" fill="#000000" data-fill-palette-color="quaternary"></path><path d="M640 160C635.4 160 632.2 156.7 632.2 152.2V96.9C632.2 92.3 635.5 89.1 640 89.1 644.6 89.1 647.8 92.4 647.8 96.9V152.2C647.8 156.1 644.6 160 640 160" fill="#000000" data-fill-palette-color="quaternary"></path><path d="M703.7 182.1C702.4 182.1 701.1 181.4 699.8 180.8 695.9 178.8 694.6 173.6 697.2 169.7L727.8 117C729.8 113.1 735 111.8 738.9 114.4 742.8 116.4 744.1 121.6 741.5 125.5L710.9 178.2C709.6 180.8 707 182.1 703.7 182.1" fill="#000000" data-fill-palette-color="quaternary"></path><path d="M741.5 228.3C738.9 228.3 736.3 227 734.3 224.4 732.3 220.5 733.6 215.9 736.9 213.3L789.6 182.7C793.5 180.7 798.1 182 800.7 185.3 802.7 189.2 801.4 193.8 798.1 196.4L745.4 227C744.1 228.3 742.8 228.3 741.5 228.3" fill="#000000" data-fill-palette-color="quaternary"></path><path d="M1062.1 48.1C1076.4 201.6 1081.6 355.1 1077.1 509.2 788.3 512.5 498.9 512.5 210.1 509.2 206.2 355.7 211.4 201.6 225.7 48.1 504.7 39 783.1 39 1062.1 48.1M1077.1 9.1C787-2.6 498.2-2.6 208.1 9.1 197 9.8 188.6 16.3 187.3 28 171 197.1 165.2 364.9 169.7 534.7 170.4 546.4 178.2 558.1 189.9 558.8 491.7 563.4 793.5 563.4 1095.3 558.8 1107 558.8 1117.4 546.4 1117.4 534.7 1122 364.9 1115.4 197.8 1099.2 28.7 1098.5 15.6 1088.8 9.1 1077.1 9.1" fill="#000000" data-fill-palette-color="quaternary"></path></svg></g></svg></g></svg></g></svg></g></svg></g></svg></g><g><path d="M0 123.6c0-68.262 55.338-123.6 123.6-123.6 46.855 0 87.621 26.072 108.582 64.5l-3.941 0c-20.633-36.453-59.764-61.056-104.641-61.056-66.36 0-120.156 53.796-120.156 120.156 0 66.36 53.796 120.156 120.156 120.156 44.877 0 84.008-24.603 104.641-61.056l3.941 0c-20.96 38.428-61.726 64.5-108.582 64.5-68.262 0-123.6-55.338-123.6-123.6z" fill="#ffffff" stroke="transparent" data-fill-palette-color="tertiary"></path></g></svg></g><defs></defs></svg><rect width="395.52" height="247.2" fill="none" stroke="none" visibility="hidden"></rect></g></svg></g></svg>